<svg width="70" height="70" viewBox="0 0 70 70" fill="none" xmlns="http://www.w3.org/2000/svg">
<path d="M70 35C70 15.67 54.33 0 35 0C15.67 0 0 15.67 0 35C0 54.33 15.67 70 35 70C54.33 70 70 54.33 70 35Z" fill="white"/>
<path d="M27.321 22.5H37.307C37.6618 22.5 38.0052 22.6258 38.276 22.855L44.468 28.093C44.6346 28.2337 44.7685 28.4091 44.8603 28.6068C44.9522 28.8045 44.9999 29.0199 45 29.238V45.1C45 47.338 44.974 47.5 42.679 47.5H27.321C25.026 47.5 25 47.342 25 45.1V24.9C25 22.658 25.026 22.5 27.321 22.5Z" fill="#576078"/>
<path d="M37.75 33.75H28.5C27.9477 33.75 27.5 34.1977 27.5 34.75V35.75C27.5 36.3023 27.9477 36.75 28.5 36.75H37.75C38.3023 36.75 38.75 36.3023 38.75 35.75V34.75C38.75 34.1977 38.3023 33.75 37.75 33.75Z" fill="white"/>
<path d="M32.75 38.75H28.5C27.9477 38.75 27.5 39.1977 27.5 39.75V40.75C27.5 41.3023 27.9477 41.75 28.5 41.75H32.75C33.3023 41.75 33.75 41.3023 33.75 40.75V39.75C33.75 39.1977 33.3023 38.75 32.75 38.75Z" fill="white"/>
</svg>
