<svg width="70" height="70" viewBox="0 0 70 70" fill="none" xmlns="http://www.w3.org/2000/svg">
<path d="M70 35C70 15.67 54.33 0 35 0C15.67 0 0 15.67 0 35C0 54.33 15.67 70 35 70C54.33 70 70 54.33 70 35Z" fill="white"/>
<path d="M43.25 45H26.75C25.9544 45 25.1913 44.6839 24.6287 44.1213C24.0661 43.5587 23.75 42.7956 23.75 42V29.25C23.75 28.4544 24.0661 27.6913 24.6287 27.1287C25.1913 26.5661 25.9544 26.25 26.75 26.25H43.25C44.0456 26.25 44.8087 26.5661 45.3713 27.1287C45.9339 27.6913 46.25 28.4544 46.25 29.25V42C46.25 42.7956 45.9339 43.5587 45.3713 44.1213C44.8087 44.6839 44.0456 45 43.25 45ZM31.875 33.75L26.25 41.25H37.5L31.875 33.75ZM40 30C39.2583 30 38.5333 30.2199 37.9166 30.632C37.2999 31.044 36.8193 31.6297 36.5355 32.3149C36.2516 33.0002 36.1774 33.7542 36.3221 34.4816C36.4667 35.209 36.8239 35.8772 37.3483 36.4017C37.8728 36.9261 38.541 37.2833 39.2684 37.4279C39.9958 37.5726 40.7498 37.4984 41.4351 37.2145C42.1203 36.9307 42.706 36.4501 43.118 35.8334C43.5301 35.2167 43.75 34.4917 43.75 33.75C43.7489 32.7558 43.3535 31.8026 42.6505 31.0995C41.9474 30.3965 40.9942 30.0011 40 30Z" fill="#576078"/>
</svg>
