<svg width="830" height="146" viewBox="0 0 830 146" fill="none" xmlns="http://www.w3.org/2000/svg">
<g id="logo-svg">
<path d="M173.306 48.9738V31.9394C173.298 23.4986 169.951 15.4034 163.995 9.41992C158.039 3.43646 149.957 0.0503391 141.513 0H31.9525C23.4807 0.00841361 15.3584 3.37607 9.36796 9.36406C3.37754 15.3521 0.00841703 23.4711 0 31.9394V114.029C0.00818447 122.473 3.35443 130.571 9.30965 136.56C15.2649 142.548 23.3464 145.941 31.7935 146H141.195C149.642 145.941 157.724 142.548 163.679 136.56C169.634 130.571 172.98 122.473 172.988 114.029V96.8671H162.433V114.029C162.433 119.704 160.18 125.148 156.168 129.164C152.156 133.18 146.714 135.44 141.036 135.449H31.9525C26.2718 135.44 20.8262 133.181 16.8093 129.166C12.7924 125.15 10.532 119.707 10.5236 114.029V31.9394C10.5404 26.2666 12.8045 20.8313 16.8205 16.8229C20.8364 12.8145 26.2773 10.5596 31.9525 10.5512H141.354C147.026 10.5596 152.464 12.8156 156.475 16.8249C160.485 20.8341 162.742 26.2695 162.751 31.9394V49.1327L173.306 48.9738Z" fill="white"/>
<path d="M181.223 63.4018H129.113C128.27 63.4018 127.462 63.7365 126.865 64.3325C126.269 64.9285 125.934 65.737 125.934 66.5799V78.9742C125.934 79.817 126.269 80.6253 126.865 81.2213C127.462 81.8173 128.27 82.1522 129.113 82.1522H181.223C182.066 82.1522 182.875 81.8173 183.471 81.2213C184.067 80.6253 184.402 79.817 184.402 78.9742V66.5799C184.402 65.737 184.067 64.9285 183.471 64.3325C182.875 63.7365 182.066 63.4018 181.223 63.4018ZM137.03 79.1014C135.772 79.1014 134.543 78.7285 133.497 78.0301C132.452 77.3317 131.637 76.339 131.155 75.1775C130.674 74.0161 130.548 72.7382 130.794 71.5052C131.039 70.2723 131.645 69.1397 132.534 68.2507C133.423 67.3618 134.556 66.7564 135.79 66.5112C137.023 66.2659 138.302 66.3919 139.463 66.8729C140.625 67.354 141.618 68.1688 142.317 69.214C143.016 70.2593 143.389 71.4882 143.389 72.7453C143.389 73.5935 143.219 74.4331 142.89 75.2148C142.561 75.9965 142.078 76.7045 141.47 77.2969C140.863 77.8892 140.143 78.3539 139.353 78.6638C138.563 78.9737 137.719 79.1226 136.871 79.1014H137.03Z" fill="white"/>
<path d="M250.4 107.21V38.9854H261.125L282.966 91.2257L304.709 38.9854H315.434V107.21H304.709V62.0842L287.158 107.21H278.675L261.125 61.5969V107.21H250.4Z" fill="white"/>
<path d="M348.525 108.379C341.44 108.379 335.947 106.138 332.047 101.654C328.147 97.171 326.197 91.4532 326.197 84.5008C326.197 77.6134 328.244 71.928 332.339 67.4447C336.434 62.8964 341.927 60.6222 348.817 60.6222C351.872 60.6222 354.668 61.272 357.203 62.5715C359.738 63.871 361.688 65.6578 363.053 67.932V61.7918H373.681V107.21H363.053V101.07C361.753 103.279 359.705 105.066 356.91 106.43C354.18 107.73 351.385 108.379 348.525 108.379ZM350.085 98.9254C354.44 98.9254 357.755 97.5609 360.03 94.8319C362.37 92.1029 363.54 88.6592 363.54 84.5008C363.54 80.3423 362.37 76.8986 360.03 74.1696C357.755 71.4407 354.44 70.0762 350.085 70.0762C345.99 70.0762 342.74 71.4407 340.335 74.1696C337.995 76.8336 336.824 80.2774 336.824 84.5008C336.824 88.7242 337.995 92.2004 340.335 94.9294C342.74 97.5934 345.99 98.9254 350.085 98.9254Z" fill="white"/>
<path d="M387.311 107.21V61.7918H397.939V70.5635C398.719 67.5097 400.247 65.203 402.522 63.6436C404.797 62.0192 407.299 61.207 410.029 61.207C411.784 61.207 413.182 61.337 414.222 61.5969V71.3432C413.117 71.2133 411.719 71.1483 410.029 71.1483C406.259 71.1483 403.302 72.5453 401.157 75.3392C399.012 78.0682 397.939 81.9992 397.939 87.1323V107.21H387.311Z" fill="white"/>
<path d="M440.029 108.379C432.944 108.379 427.451 106.138 423.551 101.654C419.651 97.171 417.701 91.4532 417.701 84.5008C417.701 77.6134 419.749 71.928 423.844 67.4447C427.939 62.8964 433.431 60.6222 440.322 60.6222C443.377 60.6222 446.172 61.272 448.707 62.5715C451.242 63.871 453.192 65.6578 454.557 67.932V61.7918H465.185V107.21H454.557V101.07C453.257 103.279 451.209 105.066 448.414 106.43C445.684 107.73 442.889 108.379 440.029 108.379ZM441.589 98.9254C445.944 98.9254 449.259 97.5609 451.534 94.8319C453.875 92.1029 455.045 88.6592 455.045 84.5008C455.045 80.3423 453.875 76.8986 451.534 74.1696C449.259 71.4407 445.944 70.0762 441.589 70.0762C437.494 70.0762 434.244 71.4407 431.839 74.1696C429.499 76.8336 428.329 80.2774 428.329 84.5008C428.329 88.7242 429.499 92.2004 431.839 94.9294C434.244 97.5934 437.494 98.9254 441.589 98.9254Z" fill="white"/>
<path d="M494.709 108.379C488.988 108.379 484.341 106.917 480.766 103.993C477.19 101.07 475.403 97.4959 475.403 93.2725H486.031C486.031 95.2217 486.876 96.8137 488.566 98.0482C490.321 99.2827 492.563 99.9 495.294 99.9C497.309 99.9 498.901 99.4127 500.071 98.438C501.241 97.4634 501.826 96.1639 501.826 94.5395C501.826 91.9405 500.689 90.3486 498.414 89.7638L486.713 86.5475C480.148 84.7282 476.865 80.5373 476.865 73.9747C476.865 70.2061 478.491 67.0548 481.741 64.5208C484.991 61.9217 489.183 60.6222 494.319 60.6222C500.104 60.6222 504.524 61.9217 507.579 64.5208C510.699 67.1198 512.259 70.531 512.259 74.7544H501.826C501.826 72.8701 501.111 71.4082 499.681 70.3686C498.316 69.264 496.399 68.7117 493.928 68.7117C492.043 68.7117 490.483 69.1665 489.248 70.0762C488.013 70.9209 487.396 72.0255 487.396 73.3899C487.396 75.859 488.696 77.4834 491.296 78.2631L502.119 81.3819C505.239 82.2916 507.774 83.851 509.724 86.0602C511.674 88.2044 512.649 90.7059 512.649 93.5649C512.649 97.9832 511.057 101.557 507.871 104.286C504.751 107.015 500.364 108.379 494.709 108.379Z" fill="white"/>
<path d="M561.404 101.654C557.113 106.138 551.296 108.379 543.951 108.379C536.605 108.379 530.755 106.138 526.4 101.654C522.11 97.106 519.965 91.3882 519.965 84.5008C519.965 77.6134 522.11 71.928 526.4 67.4447C530.755 62.8964 536.605 60.6222 543.951 60.6222C551.296 60.6222 557.113 62.8964 561.404 67.4447C565.759 71.928 567.936 77.6134 567.936 84.5008C567.936 91.3882 565.759 97.106 561.404 101.654ZM534.103 94.9294C536.508 97.5934 539.79 98.9254 543.951 98.9254C548.111 98.9254 551.361 97.5934 553.701 94.9294C556.106 92.2654 557.308 88.7892 557.308 84.5008C557.308 80.2124 556.106 76.7362 553.701 74.0722C551.361 71.4082 548.111 70.0762 543.951 70.0762C539.79 70.0762 536.508 71.4082 534.103 74.0722C531.763 76.7362 530.593 80.2124 530.593 84.5008C530.593 88.7892 531.763 92.2654 534.103 94.9294Z" fill="white"/>
<path d="M599.894 47.8545C598.919 47.8545 598.041 47.9195 597.261 48.0495C596.546 48.1794 595.734 48.4718 594.823 48.9266C593.978 49.3165 593.328 50.0312 592.873 51.0708C592.418 52.1104 592.191 53.4099 592.191 54.9694V61.7918H604.086V70.661H592.191V107.21H581.563V70.661H572.3V61.7918H581.563V55.1643C581.563 51.7206 582.116 48.8292 583.221 46.49C584.326 44.0859 585.756 42.3641 587.511 41.3245C589.331 40.2199 590.988 39.4727 592.483 39.0828C593.979 38.628 595.474 38.4006 596.969 38.4006C599.959 38.4006 602.331 38.693 604.086 39.2778V48.2444C603.761 48.2444 603.111 48.1794 602.136 48.0495C601.226 47.9195 600.479 47.8545 599.894 47.8545Z" fill="white"/>
<path d="M634.407 98.2431C636.552 98.2431 638.34 98.1132 639.77 97.8533V107.21C637.56 107.6 634.927 107.795 631.872 107.795C630.117 107.795 628.59 107.665 627.29 107.405C625.99 107.145 624.462 106.56 622.707 105.65C620.952 104.676 619.587 103.019 618.612 100.68C617.637 98.3406 617.149 95.3842 617.149 91.8105V70.661H609.447V61.7918H617.149V48.0495H627.777V61.7918H638.21V70.661H627.777V89.3739C627.777 93.0126 628.297 95.4167 629.337 96.5862C630.377 97.6908 632.067 98.2431 634.407 98.2431Z" fill="white"/>
<path d="M699.56 38.9854C706.385 38.9854 711.975 41.227 716.331 45.7103C720.751 50.1936 722.961 55.9115 722.961 62.8639C722.961 69.8163 720.751 75.5341 716.331 80.0175C711.975 84.5008 706.385 86.7424 699.56 86.7424H685.617V107.21H674.404V38.9854H699.56ZM698.878 76.7037C702.583 76.7037 705.638 75.4042 708.043 72.8052C710.513 70.1412 711.748 66.8274 711.748 62.8639C711.748 58.9004 710.513 55.6191 708.043 53.0201C705.638 50.3561 702.583 49.0241 698.878 49.0241H685.617V76.7037H698.878Z" fill="white"/>
<path d="M749.677 108.379C742.592 108.379 737.099 106.138 733.199 101.654C729.299 97.171 727.349 91.4532 727.349 84.5008C727.349 77.6134 729.397 71.928 733.492 67.4447C737.587 62.8964 743.08 60.6222 749.97 60.6222C753.025 60.6222 755.82 61.272 758.355 62.5715C760.89 63.871 762.84 65.6578 764.205 67.932V61.7918H774.833V107.21H764.205V101.07C762.905 103.279 760.858 105.066 758.063 106.43C755.333 107.73 752.537 108.379 749.677 108.379ZM751.237 98.9254C755.593 98.9254 758.908 97.5609 761.183 94.8319C763.523 92.1029 764.693 88.6592 764.693 84.5008C764.693 80.3423 763.523 76.8986 761.183 74.1696C758.908 71.4407 755.593 70.0762 751.237 70.0762C747.142 70.0762 743.892 71.4407 741.487 74.1696C739.147 76.8336 737.977 80.2774 737.977 84.5008C737.977 88.7242 739.147 92.2004 741.487 94.9294C743.892 97.5934 747.142 98.9254 751.237 98.9254Z" fill="white"/>
<path d="M819.372 61.7918H830V107.405C830 114.357 828.017 119.75 824.052 123.584C820.217 127.092 815.082 128.847 808.647 128.847C801.952 128.847 796.751 127.287 793.046 124.168C789.796 121.309 788.106 117.378 787.976 112.375H798.702C798.962 114.974 799.807 116.891 801.237 118.126C802.732 119.425 805.137 120.075 808.452 120.075C811.832 120.075 814.497 118.97 816.447 116.761C818.397 114.617 819.372 111.238 819.372 106.625V100.875C816.447 105.878 811.572 108.379 804.747 108.379C799.352 108.379 795.191 106.657 792.266 103.214C789.406 99.7051 787.976 95.1243 787.976 89.4714V61.7918H798.604V87.2298C798.604 95.0918 801.887 99.0228 808.452 99.0228C812.027 99.0228 814.725 97.7558 816.545 95.2217C818.43 92.6877 819.372 89.3739 819.372 85.2805V61.7918Z" fill="white"/>
</g>
</svg>
