<svg width="70" height="70" viewBox="0 0 70 70" fill="none" xmlns="http://www.w3.org/2000/svg">
<path d="M70 35C70 15.67 54.33 0 35 0C15.67 0 0 15.67 0 35C0 54.33 15.67 70 35 70C54.33 70 70 54.33 70 35Z" fill="white"/>
<path d="M46.524 46.088C46.3932 46.087 46.264 46.0599 46.1438 46.0084C46.0237 45.9569 45.9149 45.882 45.824 45.788L42.53 42.5H25.5C24.7044 42.5 23.9413 42.1839 23.3787 41.6213C22.8161 41.0587 22.5 40.2956 22.5 39.5V26.75C22.5 25.9544 22.8161 25.1913 23.3787 24.6287C23.9413 24.0661 24.7044 23.75 25.5 23.75H44.5C45.2956 23.75 46.0587 24.0661 46.6213 24.6287C47.1839 25.1913 47.5 25.9544 47.5 26.75V38.762L47.531 38.75V45.085C47.5314 45.2172 47.5056 45.3481 47.4551 45.4702C47.4046 45.5924 47.3303 45.7033 47.2367 45.7965C47.1431 45.8898 47.0319 45.9636 46.9095 46.0136C46.7872 46.0636 46.6562 46.0889 46.524 46.088ZM28.749 31.25C28.5227 31.2501 28.3008 31.3116 28.1067 31.428C27.9127 31.5444 27.7539 31.7112 27.6472 31.9108C27.5406 32.1103 27.4901 32.3351 27.5011 32.5611C27.5122 32.7871 27.5844 33.0058 27.71 33.194C29.615 36.05 32.068 37.5 35 37.5C37.932 37.5 40.385 36.051 42.29 33.194C42.3811 33.0574 42.4444 32.9042 42.4762 32.7432C42.5081 32.5822 42.5079 32.4165 42.4758 32.2555C42.4436 32.0945 42.38 31.9415 42.2887 31.8051C42.1974 31.6687 42.0801 31.5516 41.9435 31.4605C41.8069 31.3694 41.6537 31.3061 41.4927 31.2743C41.3317 31.2424 41.166 31.2426 41.005 31.2747C40.844 31.3069 40.691 31.3705 40.5546 31.4618C40.4182 31.5531 40.3011 31.6704 40.21 31.807C38.777 33.956 37.073 35 35 35C32.927 35 31.223 33.956 29.79 31.807C29.6759 31.6354 29.5212 31.4948 29.3395 31.3976C29.1579 31.3004 28.955 31.2497 28.749 31.25Z" fill="#576078"/>
</svg>
