<svg width="70" height="70" viewBox="0 0 70 70" fill="none" xmlns="http://www.w3.org/2000/svg">
<path d="M70 35C70 15.67 54.33 0 35 0C15.67 0 0 15.67 0 35C0 54.33 15.67 70 35 70C54.33 70 70 54.33 70 35Z" fill="white"/>
<path d="M47.824 31.02L35.412 25.843L23 31.02V26.176L35.412 20.999L47.824 26.176V31.02Z" fill="#576078"/>
<path d="M47.824 39.388L35.412 34.211L23 39.388V34.544L35.412 29.367L47.824 34.544V39.388Z" fill="#576078"/>
<path d="M47.824 47.753L35.412 42.576L23 47.753V42.913L35.412 37.736L47.824 42.913V47.753Z" fill="#576078"/>
</svg>
