<svg width="70" height="70" viewBox="0 0 70 70" fill="none" xmlns="http://www.w3.org/2000/svg">
<path d="M70 35C70 15.67 54.33 0 35 0C15.67 0 0 15.67 0 35C0 54.33 15.67 70 35 70C54.33 70 70 54.33 70 35Z" fill="white"/>
<path d="M22.5 44.75C22.5 45.1478 22.658 45.5294 22.9393 45.8107C23.2206 46.092 23.6022 46.25 24 46.25H46C46.3978 46.25 46.7794 46.092 47.0607 45.8107C47.342 45.5294 47.5 45.1478 47.5 44.75V30.25C47.5 29.8522 47.342 29.4706 47.0607 29.1893C46.7794 28.908 46.3978 28.75 46 28.75H32.5L29.189 25.439C28.9078 25.158 28.5265 25.0001 28.129 25H24C23.6022 25 23.2206 25.158 22.9393 25.4393C22.658 25.7206 22.5 26.1022 22.5 26.5V44.75Z" fill="#576078"/>
</svg>
