<svg width="24" height="24" viewBox="0 0 24 24" fill="none" xmlns="http://www.w3.org/2000/svg">
<path d="M11.9998 18L7.91477 20.147C7.74963 20.2338 7.56348 20.2727 7.37738 20.2592C7.19129 20.2458 7.01266 20.1806 6.8617 20.0709C6.71074 19.9613 6.59348 19.8116 6.52315 19.6387C6.45283 19.4659 6.43226 19.2769 6.46377 19.093L7.24377 14.545L3.93777 11.324C3.80403 11.1936 3.70947 11.0284 3.66478 10.8471C3.6201 10.6658 3.62709 10.4755 3.68496 10.298C3.74283 10.1204 3.84927 9.9626 3.99222 9.84241C4.13516 9.72223 4.30891 9.64448 4.49377 9.61797L9.06077 8.95897L11.1028 4.81697C11.1854 4.64977 11.3131 4.509 11.4716 4.41059C11.63 4.31217 11.8128 4.26001 11.9993 4.26001C12.1858 4.26001 12.3686 4.31217 12.527 4.41059C12.6854 4.509 12.8131 4.64977 12.8958 4.81697L14.9378 8.95897L19.5038 9.62297C19.6885 9.64979 19.862 9.72776 20.0047 9.84807C20.1474 9.96838 20.2535 10.1262 20.3112 10.3037C20.3688 10.4812 20.3756 10.6713 20.3309 10.8525C20.2861 11.0337 20.1915 11.1987 20.0578 11.329L16.7578 14.55L17.5378 19.098C17.5693 19.2819 17.5487 19.4709 17.4784 19.6437C17.4081 19.8166 17.2908 19.9663 17.1398 20.0759C16.9889 20.1856 16.8103 20.2508 16.6242 20.2642C16.4381 20.2777 16.2519 20.2388 16.0868 20.152L11.9998 18Z" fill="white"/>
</svg>
